HIERARCHY
ROOT Hips
{
	OFFSET 0.000000 0.000000 0.000000
	CHANNELS 6 Xposition Yposition Zposition Xrotation Yrotation Zrotation
	JOINT LeftUpLeg_virtual
	{
		OFFSET 0.000000 0.000000 0.000000
		CHANNELS 3 Xrotation Yrotation Zrotation
		JOINT LeftUpLeg
		{
			OFFSET 15.427100 -6.655098 0.678600
			CHANNELS 3 Xrotation Yrotation Zrotation
			JOINT LeftLeg
			{
				OFFSET 4.081073 -39.591068 13.024000
				CHANNELS 3 Xrotation Yrotation Zrotation
				JOINT LeftFoot
				{
					OFFSET -4.081074 -37.707932 -15.979700
					CHANNELS 3 Xrotation Yrotation Zrotation
					JOINT LeftToeBase
					{
						OFFSET 5.346399 -15.068900 20.645000
						CHANNELS 3 Xrotation Yrotation Zrotation
						JOINT LeftToe_End
						{
							OFFSET 2.754700 0.931300 11.300900
							CHANNELS 3 Xrotation Yrotation Zrotation
							End Site
							{
								OFFSET 0 0 0
							}
						}
					}
				}
			}
		}
	}
	JOINT RightUpLeg_virtual
	{
		OFFSET 0.000000 0.000000 0.000000
		CHANNELS 3 Xrotation Yrotation Zrotation
		JOINT RightUpLeg
		{
			OFFSET -15.569500 -6.655098 0.678600
			CHANNELS 3 Xrotation Yrotation Zrotation
			JOINT RightLeg
			{
				OFFSET -4.081825 -39.591045 13.023800
				CHANNELS 3 Xrotation Yrotation Zrotation
				JOINT RightFoot
				{
					OFFSET 4.081824 -37.707954 -15.979600
					CHANNELS 3 Xrotation Yrotation Zrotation
					JOINT RightToeBase
					{
						OFFSET -5.346400 -15.068900 20.645000
						CHANNELS 3 Xrotation Yrotation Zrotation
						JOINT RightToe_End
						{
							OFFSET -2.754700 0.931300 11.300900
							CHANNELS 3 Xrotation Yrotation Zrotation
							End Site
							{
								OFFSET 0 0 0
							}
						}
					}
				}
			}
		}
	}
	JOINT Spine_virtual
	{
		OFFSET 0.000000 0.000000 0.000000
		CHANNELS 3 Xrotation Yrotation Zrotation
		JOINT Spine
		{
			OFFSET -0.279200 12.230698 -2.892100
			CHANNELS 3 Xrotation Yrotation Zrotation
			JOINT Spine1
			{
				OFFSET -0.232667 10.192268 -1.242267
				CHANNELS 3 Xrotation Yrotation Zrotation
				JOINT Spine1_split
				{
					OFFSET -0.232667 10.192268 -1.242267
					CHANNELS 3 Xrotation Yrotation Zrotation
					JOINT Spine2
					{
						OFFSET -0.232667 10.192268 -1.242267
						CHANNELS 3 Xrotation Yrotation Zrotation
						JOINT Neck_virtual
						{
							OFFSET 0.000000 0.000000 0.000000
							CHANNELS 3 Xrotation Yrotation Zrotation
							JOINT Neck
							{
								OFFSET -0.418800 17.814194 8.416900
								CHANNELS 3 Xrotation Yrotation Zrotation
								JOINT Head
								{
									OFFSET 0.000000 7.031097 3.806800
									CHANNELS 3 Xrotation Yrotation Zrotation
									JOINT HeadTop_End
									{
										OFFSET 0.000000 24.646606 12.978600
										CHANNELS 3 Xrotation Yrotation Zrotation
										End Site
										{
											OFFSET 0 0 0
										}
									}
								}
							}
						}
						JOINT LeftShoulder_virtual
						{
							OFFSET 0.000000 0.000000 0.000000
							CHANNELS 3 Xrotation Yrotation Zrotation
							JOINT LeftShoulder
							{
								OFFSET 8.476499 7.247704 -3.868750
								CHANNELS 3 Xrotation Yrotation Zrotation
								JOINT LeftShoulder_split
								{
									OFFSET 8.476499 7.247704 -3.868750
									CHANNELS 3 Xrotation Yrotation Zrotation
									JOINT LeftArm
									{
										OFFSET 9.308998 -2.777710 0.208600
										CHANNELS 3 Xrotation Yrotation Zrotation
										JOINT LeftForeArm
										{
											OFFSET 29.972298 0.000000 0.000000
											CHANNELS 3 Xrotation Yrotation Zrotation
											JOINT LeftHand
											{
												OFFSET 26.026505 0.000000 0.000000
												CHANNELS 3 Xrotation Yrotation Zrotation
												End Site
												{
													OFFSET 0 0 0
												}
											}
										}
									}
								}
							}
						}
						JOINT RightShoulder_virtual
						{
							OFFSET 0.000000 0.000000 0.000000
							CHANNELS 3 Xrotation Yrotation Zrotation
							JOINT RightShoulder
							{
								OFFSET -7.570500 7.247704 -3.868750
								CHANNELS 3 Xrotation Yrotation Zrotation
								JOINT RightShoulder_split
								{
									OFFSET -7.570500 7.247704 -3.868750
									CHANNELS 3 Xrotation Yrotation Zrotation
									JOINT RightArm
									{
										OFFSET -9.308998 -2.777710 0.208500
										CHANNELS 3 Xrotation Yrotation Zrotation
										JOINT RightForeArm
										{
											OFFSET -29.972300 0.000000 0.000000
											CHANNELS 3 Xrotation Yrotation Zrotation
											JOINT RightHand
											{
												OFFSET -26.026505 0.000000 0.000000
												CHANNELS 3 Xrotation Yrotation Zrotation
												End Site
												{
													OFFSET 0 0 0
												}
											}
										}
									}
								}
							}
						}
					}
				}
			}
		}
	}
}
MOTION
Frames: 9
Frame Time: 0.03333333
0.308245 92.632385 0.300304 0.000000 0.000000 0.000000 -3.385900 2.004609 2.684725 1.911947 7.982342 5.567774 14.445835 4.610096 -1.966988 -14.994278 1.388849 -5.303479 2.041902 0.226690 -0.997977 0.000000 0.000000 0.000000 -3.569841 2.388997 2.688256 2.184740 -10.283972 -14.769328 12.883046 -4.610003 0.048517 -10.085598 -1.848024 7.672676 -3.598995 0.113508 0.035519 0.000000 0.000000 0.000000 -2.382964 2.276513 2.222283 3.461681 -0.317829 -0.095401 1.380931 -0.448050 0.758182 0.923818 0.073493 0.173058 0.000000 0.000000 0.000000 0.941327 -0.064855 0.180517 0.292110 0.608907 -1.024754 -4.517378 -5.010013 -1.656256 0.000000 0.000000 0.000000 1.029295 -0.131401 0.378352 0.949341 -2.201446 -16.080791 -0.144284 -0.454399 -0.611080 4.445251 -8.377305 -37.357450 0.831601 -64.958056 0.867920 0.000000 0.000000 0.000000 1.057799 -0.014019 0.441934 1.184561 4.701428 20.356055 1.410152 1.323761 -1.424473 -2.872994 5.654525 57.679629 0.408406 18.745869 0.416956 0.000000 0.000000 0.000000 
0.268636 92.629044 0.350426 0.000000 0.000000 0.000000 -3.455985 1.998028 2.726705 1.964968 8.139279 5.539265 14.390256 4.580301 -1.933904 -14.918673 1.390441 -5.267356 2.056582 0.225049 -0.995800 0.000000 0.000000 0.000000 -3.597455 2.374168 2.719997 2.207701 -10.246545 -14.803048 12.962843 -4.583145 0.070076 -10.106761 -1.838859 7.751170 -3.597864 0.115066 0.016929 0.000000 0.000000 0.000000 -2.448956 2.337152 2.242988 3.455977 -0.325486 -0.100599 1.360199 -0.433427 0.782342 0.981113 -0.005470 0.203460 0.000000 0.000000 0.000000 0.974150 -0.059264 0.220178 0.261949 0.700158 -1.159845 -4.369925 -5.026415 -1.620905 0.000000 0.000000 0.000000 0.979359 -0.111360 0.378384 0.984669 -2.167531 -16.066412 -0.248171 -0.663229 -0.610009 4.550014 -8.388055 -37.360814 0.842138 -64.897097 0.879800 0.000000 0.000000 0.000000 1.064293 0.003416 0.472863 1.224652 4.505663 20.227791 1.041571 1.150299 -1.355833 -2.960172 5.917386 57.345387 0.477598 18.251396 0.471383 0.000000 0.000000 0.000000 
0.255071 92.630325 0.401741 0.000000 0.000000 0.000000 -3.510931 2.146111 2.800947 2.059471 8.277084 5.427987 14.238935 4.546397 -1.890829 -14.820740 1.376511 -5.153997 2.063526 0.224352 -0.996672 0.000000 0.000000 0.000000 -3.645075 2.493325 2.787127 2.296166 -10.211210 -14.863738 13.059019 -4.619704 0.079187 -10.142272 -1.871893 7.834595 -3.587586 0.111790 0.020623 0.000000 0.000000 0.000000 -2.525101 2.481479 2.291792 3.419654 -0.329715 -0.113793 1.330945 -0.423022 0.794128 0.965924 -0.023478 0.230876 0.000000 0.000000 0.000000 0.985834 -0.061521 0.248668 0.275822 0.887852 -1.263693 -4.042214 -4.928805 -1.548451 0.000000 0.000000 0.000000 0.943487 -0.092474 0.362851 1.032094 -2.102215 -16.011314 -0.301657 -0.836460 -0.665088 4.628762 -8.372245 -37.402717 0.884586 -64.857871 0.954087 0.000000 0.000000 0.000000 1.074118 0.015308 0.486268 1.300039 4.343198 19.861282 0.730020 1.086756 -1.263224 -3.167766 6.121050 57.238922 0.533989 17.688981 0.505777 0.000000 0.000000 0.000000 
0.272521 92.628067 0.454956 0.000000 0.000000 0.000000 -3.560183 2.416967 2.888281 2.170596 8.380578 5.253048 14.050167 4.491549 -1.840680 -14.727850 1.348811 -4.984160 2.067447 0.224682 -1.001753 0.000000 0.000000 0.000000 -3.708313 2.731291 2.872731 2.442214 -10.188392 -14.943189 13.146307 -4.721438 0.073271 -10.195727 -1.935514 7.923807 -3.575113 0.107064 0.038835 0.000000 0.000000 0.000000 -2.610934 2.677314 2.357420 3.361120 -0.326989 -0.124675 1.293273 -0.416988 0.792770 0.902230 0.013786 0.238060 0.000000 0.000000 0.000000 0.970879 -0.071175 0.266912 0.330938 1.164829 -1.333813 -3.572137 -4.737150 -1.438526 0.000000 0.000000 0.000000 0.916093 -0.079433 0.338409 1.084461 -2.022011 -15.922858 -0.337390 -0.942489 -0.725118 4.659252 -8.329949 -37.477330 0.948383 -64.841417 1.074363 0.000000 0.000000 0.000000 1.084271 0.022284 0.482129 1.398872 4.220358 19.291625 0.523402 1.078889 -1.181890 -3.393182 6.245574 57.367428 0.569863 17.258589 0.510678 0.000000 0.000000 0.000000 
0.311330 92.615692 0.495224 0.000000 0.000000 0.000000 -3.608414 2.786861 2.975563 2.266928 8.439787 5.039658 13.877030 4.403621 -1.785381 -14.669359 1.310820 -4.779701 2.076805 0.227345 -1.015682 0.000000 0.000000 0.000000 -3.779887 3.067921 2.959865 2.621464 -10.185958 -15.030849 13.215666 -4.880137 0.059889 -10.270772 -2.001445 8.029208 -3.566834 0.104641 0.061952 0.000000 0.000000 0.000000 -2.694498 2.910805 2.427634 3.288005 -0.311664 -0.121563 1.250464 -0.416071 0.778767 0.859356 0.053382 0.230169 0.000000 0.000000 0.000000 0.929626 -0.084586 0.275331 0.408724 1.523738 -1.383163 -3.023216 -4.517414 -1.289317 0.000000 0.000000 0.000000 0.899260 -0.076266 0.312097 1.136367 -1.936204 -15.803646 -0.411670 -0.992550 -0.794730 4.639789 -8.277697 -37.578512 1.013485 -64.846089 1.215455 0.000000 0.000000 0.000000 1.096447 0.022878 0.461665 1.516063 4.139575 18.552039 0.340864 1.042546 -1.119168 -3.450785 6.258548 57.683994 0.586542 17.322543 0.484555 0.000000 0.000000 0.000000 
0.359641 92.586082 0.520267 0.000000 0.000000 0.000000 -3.663182 3.221446 3.051982 2.327061 8.447096 4.817583 13.746779 4.278017 -1.729204 -14.657154 1.266422 -4.570045 2.086082 0.233131 -1.038671 0.000000 0.000000 0.000000 -3.868895 3.471456 3.040640 2.818553 -10.217954 -15.122551 13.256073 -5.079520 0.042768 -10.367817 -2.036910 8.160479 -3.566996 0.107894 0.082877 0.000000 0.000000 0.000000 -2.772705 3.183650 2.501211 3.214070 -0.279421 -0.098884 1.207225 -0.419730 0.756318 0.848357 0.107497 0.227948 0.000000 0.000000 0.000000 0.866321 -0.098458 0.274235 0.490722 1.942436 -1.420097 -2.464609 -4.327000 -1.104759 0.000000 0.000000 0.000000 0.891271 -0.079303 0.290363 1.181830 -1.860798 -15.657480 -0.487627 -1.012971 -0.856949 4.592998 -8.229242 -37.703375 1.066842 -64.880104 1.355505 0.000000 0.000000 0.000000 1.103464 0.016784 0.430413 1.651625 4.082046 17.675249 0.201849 0.966056 -1.056531 -3.176531 6.200030 58.155113 0.595653 18.257461 0.429285 0.000000 0.000000 0.000000 
0.416953 92.540703 0.535332 0.000000 0.000000 0.000000 -3.724063 3.720026 3.121613 2.343689 8.402722 4.593176 13.657124 4.124700 -1.680643 -14.683437 1.215818 -4.370116 2.075800 0.241593 -1.061591 0.000000 0.000000 0.000000 -3.963074 3.931804 3.110498 3.022125 -10.311344 -15.218020 13.265365 -5.308922 0.021082 -10.480042 -2.027420 8.323128 -3.572539 0.116681 0.096127 0.000000 0.000000 0.000000 -2.843665 3.492231 2.580093 3.146006 -0.222849 -0.053135 1.162937 -0.424943 0.727259 0.849764 0.144855 0.229780 0.000000 0.000000 0.000000 0.788858 -0.106865 0.262925 0.566025 2.394055 -1.456182 -1.974025 -4.209830 -0.893686 0.000000 0.000000 0.000000 0.891414 -0.086240 0.274996 1.222970 -1.796800 -15.502760 -0.533144 -1.016863 -0.893936 4.547461 -8.174791 -37.856549 1.108961 -64.950140 1.479211 0.000000 0.000000 0.000000 1.101317 0.005137 0.389052 1.804198 4.047142 16.693489 0.124709 0.948821 -1.011776 -2.506667 6.111941 58.711043 0.600879 20.351785 0.357429 0.000000 0.000000 0.000000 
0.472559 92.488297 0.537445 0.000000 0.000000 0.000000 -3.777799 4.261604 3.192423 2.324917 8.311504 4.371250 13.602022 3.947507 -1.645859 -14.708958 1.155518 -4.188258 2.031160 0.252563 -1.079447 0.000000 0.000000 0.000000 -4.057175 4.441636 3.180270 3.221644 -10.479400 -15.325671 13.239868 -5.560880 -0.002000 -10.598965 -1.964845 8.512355 -3.586279 0.129412 0.101188 0.000000 0.000000 0.000000 -2.899556 3.856817 2.668724 3.090648 -0.137721 0.009815 1.117847 -0.424740 0.693499 0.853906 0.137434 0.261804 0.000000 0.000000 0.000000 0.712163 -0.107018 0.239915 0.632428 2.857336 -1.506393 -1.616431 -4.224408 -0.671212 0.000000 0.000000 0.000000 0.904012 -0.094480 0.264154 1.257697 -1.745104 -15.354902 -0.530822 -0.971502 -0.908559 4.515275 -8.095868 -38.047589 1.149250 -65.061513 1.584850 0.000000 0.000000 0.000000 1.089503 -0.010236 0.342064 1.971332 4.038167 15.653192 0.008207 1.020918 -0.956701 -1.409343 6.082954 59.319667 0.618307 23.616262 0.279096 0.000000 0.000000 0.000000 
0.524730 92.443756 0.517651 0.000000 0.000000 0.000000 -3.810110 4.832346 3.269861 2.271415 8.181700 4.145542 13.573486 3.759870 -1.624840 -14.689509 1.092421 -4.020049 1.968758 0.264948 -1.091446 0.000000 0.000000 0.000000 -4.125113 4.991921 3.259476 3.400767 -10.731138 -15.460806 13.165920 -5.827781 -0.028661 -10.707454 -1.855307 8.727172 -3.627328 0.144868 0.100578 0.000000 0.000000 0.000000 -2.924746 4.297809 2.772044 3.055498 -0.022482 0.088388 1.070266 -0.413451 0.655905 0.857083 0.061683 0.270338 0.000000 0.000000 0.000000 0.650096 -0.096561 0.207414 0.693140 3.312407 -1.563330 -1.403562 -4.402554 -0.453103 0.000000 0.000000 0.000000 0.924722 -0.097385 0.255462 1.282691 -1.720813 -15.227190 -0.466588 -0.880220 -0.897836 4.475657 -7.997374 -38.279303 1.196640 -65.231134 1.673470 0.000000 0.000000 0.000000 1.072962 -0.018928 0.296316 2.138070 4.080268 14.607422 -0.120080 1.226441 -0.906944 0.011274 6.181010 59.902706 0.639825 27.794403 0.204713 0.000000 0.000000 0.000000 
